<?xml version="1.0" encoding="UTF-8" standalone="no"?>
<!DOCTYPE svg PUBLIC "-//W3C//DTD SVG 1.1//EN"
 "http://www.w3.org/Graphics/SVG/1.1/DTD/svg11.dtd">
<!-- Generated by graphviz version 2.40.1 (20161225.0304)
 -->
<!-- Title: dependencies Pages: 1 -->
<svg width="748pt" height="284pt"
 viewBox="0.00 0.00 748.00 284.00" xmlns="http://www.w3.org/2000/svg" xmlns:xlink="http://www.w3.org/1999/xlink">
<g id="graph0" class="graph" transform="scale(1 1) rotate(0) translate(4 280)">
<title>dependencies</title>
<polygon fill="#ffffff" stroke="transparent" points="-4,4 -4,-280 744,-280 744,4 -4,4"/>
<text text-anchor="start" x="349.0091" y="-42.4" font-family="sans-serif" font-weight="bold" font-size="14.00" fill="#000000">Legend</text>
<polygon fill="#ffffb3" stroke="transparent" points="136,-10 136,-30 156,-30 156,-10 136,-10"/>
<text text-anchor="start" x="159.629" y="-15.4" font-family="sans-serif" font-size="14.00" fill="#000000"> &#160;Declarations</text>
<polygon fill="#8dd3c7" stroke="transparent" points="249,-10 249,-30 269,-30 269,-10 249,-10"/>
<text text-anchor="start" x="272.7251" y="-15.4" font-family="sans-serif" font-size="14.00" fill="#000000"> &#160;Module</text>
<polygon fill="#80b1d3" stroke="transparent" points="335,-10 335,-30 355,-30 355,-10 335,-10"/>
<text text-anchor="start" x="358.7812" y="-15.4" font-family="sans-serif" font-size="14.00" fill="#000000"> &#160;Bootstrap</text>
<polygon fill="#fdb462" stroke="transparent" points="432,-10 432,-30 452,-30 452,-10 432,-10"/>
<text text-anchor="start" x="455.6732" y="-15.4" font-family="sans-serif" font-size="14.00" fill="#000000"> &#160;Providers</text>
<polygon fill="#fb8072" stroke="transparent" points="528,-10 528,-30 548,-30 548,-10 528,-10"/>
<text text-anchor="start" x="551.7258" y="-15.4" font-family="sans-serif" font-size="14.00" fill="#000000"> &#160;Exports</text>
<g id="clust1" class="cluster">
<title>cluster_SharedModule</title>
<polygon fill="none" stroke="#000000" stroke-dasharray="1,5" points="8,-70 8,-268 732,-268 732,-70 8,-70"/>
</g>
<g id="clust2" class="cluster">
<title>cluster_SharedModule_declarations</title>
<polygon fill="none" stroke="#000000" points="174,-78 174,-130 724,-130 724,-78 174,-78"/>
</g>
<g id="clust8" class="cluster">
<title>cluster_SharedModule_exports</title>
<polygon fill="none" stroke="#000000" points="98,-208 98,-260 662,-260 662,-208 98,-208"/>
</g>
<g id="clust10" class="cluster">
<title>cluster_SharedModule_providers</title>
<polygon fill="none" stroke="#000000" points="16,-78 16,-130 166,-130 166,-78 16,-78"/>
</g>
<!-- DataLoaderComponent -->
<g id="node1" class="node">
<title>DataLoaderComponent</title>
<polygon fill="#ffffb3" stroke="#000000" points="715.9017,-122 568.0983,-122 568.0983,-86 715.9017,-86 715.9017,-122"/>
<text text-anchor="middle" x="642" y="-99.8" font-family="Times,serif" font-size="14.00" fill="#000000">DataLoaderComponent</text>
</g>
<!-- SharedModule -->
<g id="node5" class="node">
<title>SharedModule</title>
<polygon fill="#8dd3c7" stroke="#000000" points="409.4231,-187 406.4231,-191 385.4231,-191 382.4231,-187 310.5769,-187 310.5769,-151 409.4231,-151 409.4231,-187"/>
<text text-anchor="middle" x="360" y="-164.8" font-family="Times,serif" font-size="14.00" fill="#000000">SharedModule</text>
</g>
<!-- DataLoaderComponent&#45;&gt;SharedModule -->
<g id="edge1" class="edge">
<title>DataLoaderComponent&#45;&gt;SharedModule</title>
<path fill="none" stroke="#000000" d="M611.375,-122.1061C611.375,-141.3391 611.375,-169 611.375,-169 611.375,-169 419.3637,-169 419.3637,-169"/>
<polygon fill="#000000" stroke="#000000" points="419.3637,-165.5001 409.3637,-169 419.3636,-172.5001 419.3637,-165.5001"/>
</g>
<!-- LoaderComponent -->
<g id="node2" class="node">
<title>LoaderComponent</title>
<polygon fill="#ffffb3" stroke="#000000" points="550.4748,-122 429.5252,-122 429.5252,-86 550.4748,-86 550.4748,-122"/>
<text text-anchor="middle" x="490" y="-99.8" font-family="Times,serif" font-size="14.00" fill="#000000">LoaderComponent</text>
</g>
<!-- LoaderComponent&#45;&gt;SharedModule -->
<g id="edge2" class="edge">
<title>LoaderComponent&#45;&gt;SharedModule</title>
<path fill="none" stroke="#000000" d="M457.375,-122.027C457.375,-138.3976 457.375,-160 457.375,-160 457.375,-160 419.258,-160 419.258,-160"/>
<polygon fill="#000000" stroke="#000000" points="419.2581,-156.5001 409.258,-160 419.258,-163.5001 419.2581,-156.5001"/>
</g>
<!-- TabComponent -->
<g id="node3" class="node">
<title>TabComponent</title>
<polygon fill="#ffffb3" stroke="#000000" points="411.5996,-122 308.4004,-122 308.4004,-86 411.5996,-86 411.5996,-122"/>
<text text-anchor="middle" x="360" y="-99.8" font-family="Times,serif" font-size="14.00" fill="#000000">TabComponent</text>
</g>
<!-- TabComponent&#45;&gt;SharedModule -->
<g id="edge3" class="edge">
<title>TabComponent&#45;&gt;SharedModule</title>
<path fill="none" stroke="#000000" d="M360,-122.1061C360,-122.1061 360,-140.991 360,-140.991"/>
<polygon fill="#000000" stroke="#000000" points="356.5001,-140.9909 360,-150.991 363.5001,-140.991 356.5001,-140.9909"/>
</g>
<!-- TabsComponent -->
<g id="node4" class="node">
<title>TabsComponent</title>
<polygon fill="#ffffb3" stroke="#000000" points="290.0452,-122 181.9548,-122 181.9548,-86 290.0452,-86 290.0452,-122"/>
<text text-anchor="middle" x="236" y="-99.8" font-family="Times,serif" font-size="14.00" fill="#000000">TabsComponent</text>
</g>
<!-- TabsComponent&#45;&gt;SharedModule -->
<g id="edge4" class="edge">
<title>TabsComponent&#45;&gt;SharedModule</title>
<path fill="none" stroke="#000000" d="M262.9862,-122.027C262.9862,-138.3976 262.9862,-160 262.9862,-160 262.9862,-160 300.6405,-160 300.6405,-160"/>
<polygon fill="#000000" stroke="#000000" points="300.6405,-163.5001 310.6405,-160 300.6404,-156.5001 300.6405,-163.5001"/>
</g>
<!-- DataLoaderComponent  -->
<g id="node6" class="node">
<title>DataLoaderComponent </title>
<polygon fill="#fb8072" stroke="#000000" points="654.4012,-252 503.5988,-252 503.5988,-216 654.4012,-216 654.4012,-252"/>
<text text-anchor="middle" x="579" y="-229.8" font-family="Times,serif" font-size="14.00" fill="#000000">DataLoaderComponent </text>
</g>
<!-- SharedModule&#45;&gt;DataLoaderComponent  -->
<g id="edge5" class="edge">
<title>SharedModule&#45;&gt;DataLoaderComponent </title>
<path fill="none" stroke="#000000" stroke-dasharray="5,2" d="M409.6588,-178C458.8913,-178 527.0184,-178 527.0184,-178 527.0184,-178 527.0184,-205.973 527.0184,-205.973"/>
<polygon fill="#000000" stroke="#000000" points="523.5185,-205.973 527.0184,-215.973 530.5185,-205.973 523.5185,-205.973"/>
</g>
<!-- LoaderComponent  -->
<g id="node7" class="node">
<title>LoaderComponent </title>
<polygon fill="#fb8072" stroke="#000000" points="485.4757,-252 360.5243,-252 360.5243,-216 485.4757,-216 485.4757,-252"/>
<text text-anchor="middle" x="423" y="-229.8" font-family="Times,serif" font-size="14.00" fill="#000000">LoaderComponent </text>
</g>
<!-- SharedModule&#45;&gt;LoaderComponent  -->
<g id="edge6" class="edge">
<title>SharedModule&#45;&gt;LoaderComponent </title>
<path fill="none" stroke="#000000" stroke-dasharray="5,2" d="M384.9869,-187.1061C384.9869,-187.1061 384.9869,-205.991 384.9869,-205.991"/>
<polygon fill="#000000" stroke="#000000" points="381.4869,-205.9909 384.9869,-215.991 388.4869,-205.991 381.4869,-205.9909"/>
</g>
<!-- TabComponent  -->
<g id="node8" class="node">
<title>TabComponent </title>
<polygon fill="#fb8072" stroke="#000000" points="342.1003,-252 235.8997,-252 235.8997,-216 342.1003,-216 342.1003,-252"/>
<text text-anchor="middle" x="289" y="-229.8" font-family="Times,serif" font-size="14.00" fill="#000000">TabComponent </text>
</g>
<!-- SharedModule&#45;&gt;TabComponent  -->
<g id="edge7" class="edge">
<title>SharedModule&#45;&gt;TabComponent </title>
<path fill="none" stroke="#000000" stroke-dasharray="5,2" d="M326.5444,-187.1061C326.5444,-187.1061 326.5444,-205.991 326.5444,-205.991"/>
<polygon fill="#000000" stroke="#000000" points="323.0444,-205.9909 326.5444,-215.991 330.0444,-205.991 323.0444,-205.9909"/>
</g>
<!-- TabsComponent  -->
<g id="node9" class="node">
<title>TabsComponent </title>
<polygon fill="#fb8072" stroke="#000000" points="218.0442,-252 105.9558,-252 105.9558,-216 218.0442,-216 218.0442,-252"/>
<text text-anchor="middle" x="162" y="-229.8" font-family="Times,serif" font-size="14.00" fill="#000000">TabsComponent </text>
</g>
<!-- SharedModule&#45;&gt;TabsComponent  -->
<g id="edge8" class="edge">
<title>SharedModule&#45;&gt;TabsComponent </title>
<path fill="none" stroke="#000000" stroke-dasharray="5,2" d="M310.6507,-178C263.6021,-178 199.875,-178 199.875,-178 199.875,-178 199.875,-205.973 199.875,-205.973"/>
<polygon fill="#000000" stroke="#000000" points="196.3751,-205.973 199.875,-215.973 203.3751,-205.973 196.3751,-205.973"/>
</g>
<!-- LoaderService -->
<g id="node10" class="node">
<title>LoaderService</title>
<ellipse fill="#fdb462" stroke="#000000" cx="91" cy="-104" rx="67.1734" ry="18"/>
<text text-anchor="middle" x="91" y="-99.8" font-family="Times,serif" font-size="14.00" fill="#000000">LoaderService</text>
</g>
<!-- LoaderService&#45;&gt;SharedModule -->
<g id="edge9" class="edge">
<title>LoaderService&#45;&gt;SharedModule</title>
<path fill="none" stroke="#000000" d="M132.1572,-118.4256C132.1572,-137.5751 132.1572,-169 132.1572,-169 132.1572,-169 300.5615,-169 300.5615,-169"/>
<polygon fill="#000000" stroke="#000000" points="300.5615,-172.5001 310.5615,-169 300.5615,-165.5001 300.5615,-172.5001"/>
</g>
</g>
</svg>
