<?xml version="1.0" encoding="UTF-8" standalone="no"?>
<!DOCTYPE svg PUBLIC "-//W3C//DTD SVG 1.1//EN"
 "http://www.w3.org/Graphics/SVG/1.1/DTD/svg11.dtd">
<!-- Generated by graphviz version 2.40.1 (20161225.0304)
 -->
<!-- Title: dependencies Pages: 1 -->
<svg width="580pt" height="284pt"
 viewBox="0.00 0.00 580.00 284.00" xmlns="http://www.w3.org/2000/svg" xmlns:xlink="http://www.w3.org/1999/xlink">
<g id="graph0" class="graph" transform="scale(1 1) rotate(0) translate(4 280)">
<title>dependencies</title>
<polygon fill="#ffffff" stroke="transparent" points="-4,4 -4,-280 576,-280 576,4 -4,4"/>
<text text-anchor="start" x="265.0091" y="-42.4" font-family="sans-serif" font-weight="bold" font-size="14.00" fill="#000000">Legend</text>
<polygon fill="#ffffb3" stroke="transparent" points="52,-10 52,-30 72,-30 72,-10 52,-10"/>
<text text-anchor="start" x="75.629" y="-15.4" font-family="sans-serif" font-size="14.00" fill="#000000"> &#160;Declarations</text>
<polygon fill="#8dd3c7" stroke="transparent" points="165,-10 165,-30 185,-30 185,-10 165,-10"/>
<text text-anchor="start" x="188.7251" y="-15.4" font-family="sans-serif" font-size="14.00" fill="#000000"> &#160;Module</text>
<polygon fill="#80b1d3" stroke="transparent" points="251,-10 251,-30 271,-30 271,-10 251,-10"/>
<text text-anchor="start" x="274.7812" y="-15.4" font-family="sans-serif" font-size="14.00" fill="#000000"> &#160;Bootstrap</text>
<polygon fill="#fdb462" stroke="transparent" points="348,-10 348,-30 368,-30 368,-10 348,-10"/>
<text text-anchor="start" x="371.6732" y="-15.4" font-family="sans-serif" font-size="14.00" fill="#000000"> &#160;Providers</text>
<polygon fill="#fb8072" stroke="transparent" points="444,-10 444,-30 464,-30 464,-10 444,-10"/>
<text text-anchor="start" x="467.7258" y="-15.4" font-family="sans-serif" font-size="14.00" fill="#000000"> &#160;Exports</text>
<g id="clust1" class="cluster">
<title>cluster_MainviewModule</title>
<polygon fill="none" stroke="#000000" stroke-dasharray="1,5" points="8,-70 8,-268 564,-268 564,-70 8,-70"/>
</g>
<g id="clust2" class="cluster">
<title>cluster_MainviewModule_declarations</title>
<polygon fill="none" stroke="#000000" points="138,-78 138,-130 556,-130 556,-78 138,-78"/>
</g>
<g id="clust6" class="cluster">
<title>cluster_MainviewModule_imports</title>
<polygon fill="none" stroke="#000000" points="16,-78 16,-130 130,-130 130,-78 16,-78"/>
</g>
<g id="clust7" class="cluster">
<title>cluster_MainviewModule_exports</title>
<polygon fill="none" stroke="#000000" points="72,-208 72,-260 500,-260 500,-208 72,-208"/>
</g>
<!-- DataviewComponent -->
<g id="node1" class="node">
<title>DataviewComponent</title>
<polygon fill="#ffffb3" stroke="#000000" points="548.4706,-122 413.5294,-122 413.5294,-86 548.4706,-86 548.4706,-122"/>
<text text-anchor="middle" x="481" y="-99.8" font-family="Times,serif" font-size="14.00" fill="#000000">DataviewComponent</text>
</g>
<!-- MainviewModule -->
<g id="node4" class="node">
<title>MainviewModule</title>
<polygon fill="#8dd3c7" stroke="#000000" points="339.3118,-187 336.3118,-191 315.3118,-191 312.3118,-187 222.6882,-187 222.6882,-151 339.3118,-151 339.3118,-187"/>
<text text-anchor="middle" x="281" y="-164.8" font-family="Times,serif" font-size="14.00" fill="#000000">MainviewModule</text>
</g>
<!-- DataviewComponent&#45;&gt;MainviewModule -->
<g id="edge1" class="edge">
<title>DataviewComponent&#45;&gt;MainviewModule</title>
<path fill="none" stroke="#000000" d="M452.875,-122.0225C452.875,-139.3734 452.875,-163 452.875,-163 452.875,-163 349.189,-163 349.189,-163"/>
<polygon fill="#000000" stroke="#000000" points="349.1891,-159.5001 339.189,-163 349.189,-166.5001 349.1891,-159.5001"/>
</g>
<!-- MapComponent -->
<g id="node2" class="node">
<title>MapComponent</title>
<polygon fill="#ffffb3" stroke="#000000" points="395.4916,-122 288.5084,-122 288.5084,-86 395.4916,-86 395.4916,-122"/>
<text text-anchor="middle" x="342" y="-99.8" font-family="Times,serif" font-size="14.00" fill="#000000">MapComponent</text>
</g>
<!-- MapComponent&#45;&gt;MainviewModule -->
<g id="edge2" class="edge">
<title>MapComponent&#45;&gt;MainviewModule</title>
<path fill="none" stroke="#000000" d="M313.83,-122.1061C313.83,-122.1061 313.83,-140.991 313.83,-140.991"/>
<polygon fill="#000000" stroke="#000000" points="310.33,-140.9909 313.83,-150.991 317.33,-140.991 310.33,-140.9909"/>
</g>
<!-- SidebarComponent -->
<g id="node3" class="node">
<title>SidebarComponent</title>
<polygon fill="#ffffb3" stroke="#000000" points="270.0954,-122 145.9046,-122 145.9046,-86 270.0954,-86 270.0954,-122"/>
<text text-anchor="middle" x="208" y="-99.8" font-family="Times,serif" font-size="14.00" fill="#000000">SidebarComponent</text>
</g>
<!-- SidebarComponent&#45;&gt;MainviewModule -->
<g id="edge3" class="edge">
<title>SidebarComponent&#45;&gt;MainviewModule</title>
<path fill="none" stroke="#000000" d="M246.446,-122.1061C246.446,-122.1061 246.446,-140.991 246.446,-140.991"/>
<polygon fill="#000000" stroke="#000000" points="242.9461,-140.9909 246.446,-150.991 249.9461,-140.991 242.9461,-140.9909"/>
</g>
<!-- DataviewComponent  -->
<g id="node6" class="node">
<title>DataviewComponent </title>
<polygon fill="#fb8072" stroke="#000000" points="492.4714,-252 353.5286,-252 353.5286,-216 492.4714,-216 492.4714,-252"/>
<text text-anchor="middle" x="423" y="-229.8" font-family="Times,serif" font-size="14.00" fill="#000000">DataviewComponent </text>
</g>
<!-- MainviewModule&#45;&gt;DataviewComponent  -->
<g id="edge5" class="edge">
<title>MainviewModule&#45;&gt;DataviewComponent </title>
<path fill="none" stroke="#000000" stroke-dasharray="5,2" d="M339.2327,-175C358.2732,-175 374.6303,-175 374.6303,-175 374.6303,-175 374.6303,-205.9775 374.6303,-205.9775"/>
<polygon fill="#000000" stroke="#000000" points="371.1303,-205.9774 374.6303,-215.9775 378.1303,-205.9775 371.1303,-205.9774"/>
</g>
<!-- MapComponent  -->
<g id="node7" class="node">
<title>MapComponent </title>
<polygon fill="#fb8072" stroke="#000000" points="336.4927,-252 225.5073,-252 225.5073,-216 336.4927,-216 336.4927,-252"/>
<text text-anchor="middle" x="281" y="-229.8" font-family="Times,serif" font-size="14.00" fill="#000000">MapComponent </text>
</g>
<!-- MainviewModule&#45;&gt;MapComponent  -->
<g id="edge6" class="edge">
<title>MainviewModule&#45;&gt;MapComponent </title>
<path fill="none" stroke="#000000" stroke-dasharray="5,2" d="M281,-187.1061C281,-187.1061 281,-205.991 281,-205.991"/>
<polygon fill="#000000" stroke="#000000" points="277.5001,-205.9909 281,-215.991 284.5001,-205.991 277.5001,-205.9909"/>
</g>
<!-- SidebarComponent  -->
<g id="node8" class="node">
<title>SidebarComponent </title>
<polygon fill="#fb8072" stroke="#000000" points="207.596,-252 80.404,-252 80.404,-216 207.596,-216 207.596,-252"/>
<text text-anchor="middle" x="144" y="-229.8" font-family="Times,serif" font-size="14.00" fill="#000000">SidebarComponent </text>
</g>
<!-- MainviewModule&#45;&gt;SidebarComponent  -->
<g id="edge7" class="edge">
<title>MainviewModule&#45;&gt;SidebarComponent </title>
<path fill="none" stroke="#000000" stroke-dasharray="5,2" d="M222.5457,-175C198.8107,-175 176.875,-175 176.875,-175 176.875,-175 176.875,-205.9775 176.875,-205.9775"/>
<polygon fill="#000000" stroke="#000000" points="173.3751,-205.9774 176.875,-215.9775 180.3751,-205.9775 173.3751,-205.9774"/>
</g>
<!-- SharedModule -->
<g id="node5" class="node">
<title>SharedModule</title>
<polygon fill="#8dd3c7" stroke="#000000" points="122.4231,-122 119.4231,-126 98.4231,-126 95.4231,-122 23.5769,-122 23.5769,-86 122.4231,-86 122.4231,-122"/>
<text text-anchor="middle" x="73" y="-99.8" font-family="Times,serif" font-size="14.00" fill="#000000">SharedModule</text>
</g>
<!-- SharedModule&#45;&gt;MainviewModule -->
<g id="edge4" class="edge">
<title>SharedModule&#45;&gt;MainviewModule</title>
<path fill="none" stroke="#000000" d="M101.2067,-122.0225C101.2067,-139.3734 101.2067,-163 101.2067,-163 101.2067,-163 212.6263,-163 212.6263,-163"/>
<polygon fill="#000000" stroke="#000000" points="212.6263,-166.5001 222.6263,-163 212.6262,-159.5001 212.6263,-166.5001"/>
</g>
</g>
</svg>
