<?xml version="1.0" encoding="UTF-8" standalone="no"?>
<!DOCTYPE svg PUBLIC "-//W3C//DTD SVG 1.1//EN"
 "http://www.w3.org/Graphics/SVG/1.1/DTD/svg11.dtd">
<!-- Generated by graphviz version 2.40.1 (20161225.0304)
 -->
<!-- Title: dependencies Pages: 1 -->
<svg width="603pt" height="284pt"
 viewBox="0.00 0.00 603.00 284.00" xmlns="http://www.w3.org/2000/svg" xmlns:xlink="http://www.w3.org/1999/xlink">
<g id="graph0" class="graph" transform="scale(1 1) rotate(0) translate(4 280)">
<title>dependencies</title>
<polygon fill="#ffffff" stroke="transparent" points="-4,4 -4,-280 599,-280 599,4 -4,4"/>
<text text-anchor="start" x="276.5091" y="-42.4" font-family="sans-serif" font-weight="bold" font-size="14.00" fill="#000000">Legend</text>
<polygon fill="#ffffb3" stroke="transparent" points="63.5,-10 63.5,-30 83.5,-30 83.5,-10 63.5,-10"/>
<text text-anchor="start" x="87.129" y="-15.4" font-family="sans-serif" font-size="14.00" fill="#000000"> &#160;Declarations</text>
<polygon fill="#8dd3c7" stroke="transparent" points="176.5,-10 176.5,-30 196.5,-30 196.5,-10 176.5,-10"/>
<text text-anchor="start" x="200.2251" y="-15.4" font-family="sans-serif" font-size="14.00" fill="#000000"> &#160;Module</text>
<polygon fill="#80b1d3" stroke="transparent" points="262.5,-10 262.5,-30 282.5,-30 282.5,-10 262.5,-10"/>
<text text-anchor="start" x="286.2812" y="-15.4" font-family="sans-serif" font-size="14.00" fill="#000000"> &#160;Bootstrap</text>
<polygon fill="#fdb462" stroke="transparent" points="359.5,-10 359.5,-30 379.5,-30 379.5,-10 359.5,-10"/>
<text text-anchor="start" x="383.1732" y="-15.4" font-family="sans-serif" font-size="14.00" fill="#000000"> &#160;Providers</text>
<polygon fill="#fb8072" stroke="transparent" points="455.5,-10 455.5,-30 475.5,-30 475.5,-10 455.5,-10"/>
<text text-anchor="start" x="479.2258" y="-15.4" font-family="sans-serif" font-size="14.00" fill="#000000"> &#160;Exports</text>
<g id="clust1" class="cluster">
<title>cluster_AppModule</title>
<polygon fill="none" stroke="#000000" stroke-dasharray="1,5" points="8,-70 8,-268 587,-268 587,-70 8,-70"/>
</g>
<g id="clust2" class="cluster">
<title>cluster_AppModule_declarations</title>
<polygon fill="none" stroke="#000000" points="457,-78 457,-130 579,-130 579,-78 457,-78"/>
</g>
<g id="clust4" class="cluster">
<title>cluster_AppModule_imports</title>
<polygon fill="none" stroke="#000000" points="16,-78 16,-130 449,-130 449,-78 16,-78"/>
</g>
<g id="clust6" class="cluster">
<title>cluster_AppModule_bootstrap</title>
<polygon fill="none" stroke="#000000" points="174,-208 174,-260 298,-260 298,-208 174,-208"/>
</g>
<!-- AppComponent -->
<g id="node1" class="node">
<title>AppComponent</title>
<polygon fill="#ffffb3" stroke="#000000" points="570.9399,-122 465.0601,-122 465.0601,-86 570.9399,-86 570.9399,-122"/>
<text text-anchor="middle" x="518" y="-99.8" font-family="Times,serif" font-size="14.00" fill="#000000">AppComponent</text>
</g>
<!-- AppModule -->
<g id="node2" class="node">
<title>AppModule</title>
<polygon fill="#8dd3c7" stroke="#000000" points="277.6571,-187 274.6571,-191 253.6571,-191 250.6571,-187 194.3429,-187 194.3429,-151 277.6571,-151 277.6571,-187"/>
<text text-anchor="middle" x="236" y="-164.8" font-family="Times,serif" font-size="14.00" fill="#000000">AppModule</text>
</g>
<!-- AppComponent&#45;&gt;AppModule -->
<g id="edge1" class="edge">
<title>AppComponent&#45;&gt;AppModule</title>
<path fill="none" stroke="#000000" d="M518,-122.2843C518,-143.3211 518,-175 518,-175 518,-175 287.9137,-175 287.9137,-175"/>
<polygon fill="#000000" stroke="#000000" points="287.9138,-171.5001 277.9137,-175 287.9137,-178.5001 287.9138,-171.5001"/>
</g>
<!-- AppComponent  -->
<g id="node6" class="node">
<title>AppComponent </title>
<polygon fill="#80b1d3" stroke="#000000" points="290.439,-252 181.561,-252 181.561,-216 290.439,-216 290.439,-252"/>
<text text-anchor="middle" x="236" y="-229.8" font-family="Times,serif" font-size="14.00" fill="#000000">AppComponent </text>
</g>
<!-- AppModule&#45;&gt;AppComponent  -->
<g id="edge5" class="edge">
<title>AppModule&#45;&gt;AppComponent </title>
<path fill="none" stroke="#000000" stroke-dasharray="1,5" d="M236,-187.1061C236,-187.1061 236,-205.991 236,-205.991"/>
<polygon fill="#000000" stroke="#000000" points="232.5001,-205.9909 236,-215.991 239.5001,-205.991 232.5001,-205.9909"/>
</g>
<!-- AppRoutingModule -->
<g id="node3" class="node">
<title>AppRoutingModule</title>
<polygon fill="#8dd3c7" stroke="#000000" points="441.2744,-122 438.2744,-126 417.2744,-126 414.2744,-122 312.7256,-122 312.7256,-86 441.2744,-86 441.2744,-122"/>
<text text-anchor="middle" x="377" y="-99.8" font-family="Times,serif" font-size="14.00" fill="#000000">AppRoutingModule</text>
</g>
<!-- AppRoutingModule&#45;&gt;AppModule -->
<g id="edge2" class="edge">
<title>AppRoutingModule&#45;&gt;AppModule</title>
<path fill="none" stroke="#000000" d="M377,-122.0225C377,-139.3734 377,-163 377,-163 377,-163 287.9229,-163 287.9229,-163"/>
<polygon fill="#000000" stroke="#000000" points="287.9229,-159.5001 277.9229,-163 287.9229,-166.5001 287.9229,-159.5001"/>
</g>
<!-- MainviewModule -->
<g id="node4" class="node">
<title>MainviewModule</title>
<polygon fill="#8dd3c7" stroke="#000000" points="294.3118,-122 291.3118,-126 270.3118,-126 267.3118,-122 177.6882,-122 177.6882,-86 294.3118,-86 294.3118,-122"/>
<text text-anchor="middle" x="236" y="-99.8" font-family="Times,serif" font-size="14.00" fill="#000000">MainviewModule</text>
</g>
<!-- MainviewModule&#45;&gt;AppModule -->
<g id="edge3" class="edge">
<title>MainviewModule&#45;&gt;AppModule</title>
<path fill="none" stroke="#000000" d="M236,-122.1061C236,-122.1061 236,-140.991 236,-140.991"/>
<polygon fill="#000000" stroke="#000000" points="232.5001,-140.9909 236,-150.991 239.5001,-140.991 232.5001,-140.9909"/>
</g>
<!-- SharedModule -->
<g id="node5" class="node">
<title>SharedModule</title>
<ellipse fill="#8dd3c7" stroke="#000000" cx="92" cy="-104" rx="67.7799" ry="18"/>
<text text-anchor="middle" x="92" y="-99.8" font-family="Times,serif" font-size="14.00" fill="#000000">SharedModule</text>
</g>
<!-- SharedModule&#45;&gt;AppModule -->
<g id="edge4" class="edge">
<title>SharedModule&#45;&gt;AppModule</title>
<path fill="none" stroke="#000000" d="M114.6299,-121.0652C114.6299,-138.4902 114.6299,-163 114.6299,-163 114.6299,-163 184.2313,-163 184.2313,-163"/>
<polygon fill="#000000" stroke="#000000" points="184.2313,-166.5001 194.2313,-163 184.2313,-159.5001 184.2313,-166.5001"/>
</g>
<!-- SharedModule&#45;&gt;AppModule -->
<g id="edge6" class="edge">
<title>SharedModule&#45;&gt;AppModule</title>
<path fill="none" stroke="#000000" d="M69.3701,-121.1871C69.3701,-142.1998 69.3701,-175 69.3701,-175 69.3701,-175 183.9522,-175 183.9522,-175"/>
<polygon fill="#000000" stroke="#000000" points="183.9523,-178.5001 193.9522,-175 183.9522,-171.5001 183.9523,-178.5001"/>
</g>
</g>
</svg>
